<?xml version="1.0" standalone="no"?>
<!DOCTYPE svg PUBLIC "-//W3C//DTD SVG 20010904//EN"
 "http://www.w3.org/TR/2001/REC-SVG-20010904/DTD/svg10.dtd">
<svg version="1.0" xmlns="http://www.w3.org/2000/svg"
 width="752.000000pt" height="484.000000pt" viewBox="0 0 752.000000 484.000000"
 preserveAspectRatio="xMidYMid meet">

<g transform="translate(0.000000,484.000000) scale(0.100000,-0.100000)"
fill="#000000" stroke="none">
<path d="M4583 4563 c-10 -3 -13 -54 -13 -204 l0 -199 40 0 40 0 0 110 0 110
29 0 c16 0 33 -6 39 -13 6 -7 13 -56 14 -108 l3 -94 38 -3 37 -3 0 106 c0 126
-12 157 -66 175 -19 7 -49 10 -65 8 l-29 -5 0 64 c0 62 0 63 -27 62 -16 0 -34
-3 -40 -6z"/>
<path d="M5723 4563 c-10 -3 -13 -53 -13 -198 0 -167 2 -194 16 -199 9 -3 50
-6 91 -6 75 0 76 0 115 40 l40 40 -4 70 c-3 63 -7 74 -36 102 -28 29 -38 32
-87 32 l-55 0 0 63 c0 62 0 63 -27 62 -16 0 -34 -3 -40 -6z m149 -200 c12 -10
18 -30 18 -56 0 -50 -31 -87 -72 -87 l-28 0 0 73 c0 41 3 77 7 80 12 13 56 7
75 -10z"/>
<path d="M1570 4350 l0 -180 25 0 25 0 0 180 0 180 -25 0 -25 0 0 -180z"/>
<path d="M1970 4510 c0 -18 7 -20 60 -20 l60 0 0 -160 0 -160 25 0 25 0 0 160
0 160 60 0 c53 0 60 2 60 20 0 19 -7 20 -145 20 -138 0 -145 -1 -145 -20z"/>
<path d="M2510 4345 l0 -185 40 0 39 0 3 68 c3 60 5 67 25 70 17 3 30 -11 65
-67 l43 -71 48 0 48 0 -17 33 c-9 17 -30 51 -46 74 l-29 43 33 29 c28 25 33
36 33 74 0 84 -55 117 -195 117 l-90 0 0 -185z m184 99 c38 -37 9 -77 -57 -78
l-42 -1 -3 48 -3 47 45 0 c27 0 51 -6 60 -16z"/>
<path d="M5090 4345 l0 -186 128 3 127 3 3 33 3 32 -85 0 -86 0 0 150 0 150
-45 0 -45 0 0 -185z"/>
<path d="M2921 4433 c-70 -37 -99 -121 -68 -196 22 -52 68 -77 144 -77 80 0
93 6 93 42 l0 29 -52 -6 c-58 -6 -101 9 -106 38 -3 15 7 17 89 17 l92 0 -5 51
c-4 39 -12 58 -34 80 -38 38 -105 48 -153 22z m97 -65 c26 -26 13 -38 -38 -38
-34 0 -50 4 -50 13 0 21 22 37 50 37 14 0 31 -5 38 -12z"/>
<path d="M3215 4434 c-38 -20 -45 -31 -45 -75 0 -42 15 -58 83 -88 66 -28 58
-46 -21 -44 -57 1 -61 0 -67 -24 -9 -36 7 -43 93 -43 64 0 76 3 97 25 49 48
28 106 -51 141 -77 34 -66 78 14 55 34 -10 38 -8 44 33 5 35 -94 48 -147 20z"/>
<path d="M3505 4431 c-59 -36 -70 -57 -70 -132 0 -64 2 -71 33 -101 30 -31 37
-33 110 -36 91 -3 107 4 97 46 -6 29 -7 30 -42 20 -19 -5 -47 -7 -62 -3 -28 7
-61 32 -61 47 0 4 43 8 96 8 l97 0 -7 47 c-8 59 -29 91 -71 109 -46 19 -84 18
-120 -5z m105 -70 c15 -30 14 -31 -45 -31 -57 0 -66 8 -39 34 22 23 71 20 84
-3z"/>
<path d="M3797 4443 c-24 -4 -28 -8 -23 -26 3 -12 6 -26 6 -32 0 -6 28 -10 62
-10 58 0 63 -2 66 -23 3 -20 0 -22 -21 -17 -38 10 -103 -12 -127 -43 -27 -34
-21 -78 16 -109 21 -19 37 -23 97 -23 122 0 117 -5 117 117 0 57 -5 113 -11
125 -21 39 -91 54 -182 41z m113 -193 c0 -28 -3 -30 -35 -30 -22 0 -38 6 -41
15 -11 28 4 45 41 45 32 0 35 -2 35 -30z"/>
<path d="M4120 4441 c-20 -4 -40 -10 -45 -13 -6 -4 -9 -60 -7 -137 l3 -131 40
0 39 0 0 111 0 111 45 -4 c42 -3 45 -1 51 25 3 16 4 30 2 33 -9 9 -95 12 -128
5z"/>
<path d="M4360 4432 c-19 -9 -45 -33 -58 -52 -20 -29 -23 -44 -20 -94 4 -53 8
-62 41 -92 34 -32 41 -34 106 -34 39 0 72 4 76 10 3 5 3 21 -1 35 -6 24 -9 25
-50 19 -37 -5 -46 -3 -68 19 -32 32 -34 75 -4 112 19 24 26 27 64 22 44 -5 54
3 54 43 0 33 -84 41 -140 12z"/>
<path d="M5438 4443 c-28 -4 -32 -12 -22 -48 4 -17 12 -20 55 -17 29 3 56 -1
64 -8 27 -22 16 -35 -27 -35 -112 0 -165 -80 -99 -146 27 -27 35 -29 103 -29
123 0 118 -4 118 112 0 67 -5 108 -15 127 -22 44 -82 58 -177 44z m112 -193
c0 -27 -3 -30 -34 -30 -18 0 -39 7 -46 15 -19 22 5 45 46 45 31 0 34 -3 34
-30z"/>
<path d="M1760 4418 c-59 -40 -76 -142 -34 -205 40 -62 146 -70 196 -14 49 55
49 147 -1 203 -38 43 -110 50 -161 16z m104 -19 c14 -7 32 -27 42 -47 48 -101
-58 -205 -133 -130 -21 21 -25 35 -25 79 0 47 3 56 31 81 35 31 48 34 85 17z"/>
<path d="M2955 3941 c-55 -14 -110 -49 -153 -94 -57 -63 -75 -108 -76 -197 -1
-63 3 -84 27 -132 52 -107 157 -168 286 -168 115 0 215 63 273 173 33 61 33
194 0 255 -31 58 -88 113 -146 141 -53 24 -160 36 -211 22z m129 -111 c5 -5
-9 -6 -31 -3 -22 3 -50 0 -62 -6 -12 -7 -21 -8 -21 -2 0 25 90 34 114 11z
m-20 -18 c2 -4 -13 -7 -34 -7 -22 0 -33 3 -27 7 16 10 55 10 61 0z m-14 -22
c12 -8 9 -10 -13 -10 -16 0 -26 4 -22 10 8 12 16 12 35 0z m18 -108 c6 -12 12
-31 12 -42 0 -13 7 -20 20 -20 14 0 20 7 20 23 0 12 8 30 18 38 17 15 20 15
30 -2 7 -10 12 -30 12 -44 0 -15 6 -25 15 -25 16 0 28 -36 23 -71 l-3 -24
-182 -3 -183 -2 0 46 c0 37 4 47 20 51 14 4 20 14 20 33 0 61 34 85 46 33 10
-49 14 -55 31 -51 10 2 20 17 24 36 4 18 15 41 25 51 20 19 28 15 52 -27z"/>
<path d="M3015 3690 c-3 -5 3 -10 14 -10 12 0 21 5 21 10 0 6 -6 10 -14 10 -8
0 -18 -4 -21 -10z"/>
<path d="M2900 3595 c0 -60 3 -75 15 -75 12 0 15 15 15 75 0 60 -3 75 -15 75
-12 0 -15 -15 -15 -75z"/>
<path d="M3000 3596 l0 -76 35 0 36 0 -3 73 -3 72 -32 3 -33 3 0 -75z"/>
<path d="M3137 3663 c-2 -4 -3 -37 -1 -73 2 -51 6 -66 19 -68 14 -3 16 6 13
69 -2 44 -8 74 -15 76 -6 2 -13 0 -16 -4z"/>
<path d="M2940 3564 c0 -41 2 -45 23 -42 18 2 23 10 25 46 3 39 1 42 -22 42
-24 0 -26 -3 -26 -46z"/>
<path d="M3080 3565 c0 -38 3 -45 20 -45 17 0 20 7 20 45 0 38 -3 45 -20 45
-17 0 -20 -7 -20 -45z"/>
<path d="M2860 3554 c0 -45 24 -42 28 4 2 24 -1 32 -12 32 -12 0 -16 -10 -16
-36z"/>
<path d="M3180 3555 c0 -19 5 -35 10 -35 6 0 10 16 10 35 0 19 -4 35 -10 35
-5 0 -10 -16 -10 -35z"/>
<path d="M4417 3940 c-139 -35 -231 -152 -231 -295 -1 -175 140 -302 324 -293
93 4 155 33 215 100 52 58 75 120 75 203 0 113 -76 224 -185 270 -49 20 -147
27 -198 15z m194 -147 c5 -38 3 -93 -3 -93 -5 0 -8 14 -8 30 l0 30 -110 0
-110 0 0 -110 0 -110 73 -2 72 -2 -73 -3 c-96 -5 -93 -26 4 -34 l69 -6 -75 1
-75 1 -3 140 c-1 76 0 145 2 152 4 10 35 13 121 13 63 0 115 -3 116 -7z m-181
-67 c0 -3 -4 -8 -10 -11 -5 -3 -10 -1 -10 4 0 6 5 11 10 11 6 0 10 -2 10 -4z
m150 -21 c0 -7 17 -22 38 -33 35 -18 37 -22 34 -63 -3 -52 -16 -69 -51 -68
l-26 2 25 4 c32 6 40 19 40 68 0 29 -3 36 -10 25 -8 -12 -10 -12 -10 5 0 17
-2 17 -10 5 -8 -13 -10 -12 -10 3 0 19 -19 24 -21 5 -1 -7 -5 3 -9 22 -7 34
-7 33 -9 -15 -1 -45 -3 -48 -15 -32 -24 32 -29 -1 -6 -39 12 -19 20 -37 18
-39 -2 -3 -15 13 -27 36 -24 42 -22 69 4 69 10 0 15 10 15 28 0 16 3 32 6 35
9 9 24 -2 24 -18z m-150 -29 c0 -3 -4 -8 -10 -11 -5 -3 -10 -1 -10 4 0 6 5 11
10 11 6 0 10 -2 10 -4z m0 -56 c0 -5 -4 -10 -10 -10 -5 0 -10 5 -10 10 0 6 5
10 10 10 6 0 10 -4 10 -10z m73 -107 c-7 -2 -19 -2 -25 0 -7 3 -2 5 12 5 14 0
19 -2 13 -5z"/>
<path d="M4380 3779 c0 -6 23 -9 60 -8 33 1 60 6 60 11 0 4 -27 8 -60 8 -35 0
-60 -4 -60 -11z"/>
<path d="M4510 3780 c0 -5 20 -10 45 -10 25 0 45 5 45 10 0 6 -20 10 -45 10
-25 0 -45 -4 -45 -10z"/>
<path d="M3732 3688 c-16 -16 -15 -33 3 -48 13 -11 15 -59 15 -325 l0 -313
-67 -7 c-191 -20 -388 -106 -518 -226 -44 -41 -44 -41 -68 -22 -83 65 -457
420 -453 429 7 19 -18 47 -39 43 -10 -2 -23 -11 -28 -21 -14 -21 7 -48 38 -48
21 0 119 -85 370 -321 28 -25 67 -61 87 -78 l37 -32 -44 -54 c-108 -133 -172
-291 -190 -467 l-7 -68 -326 0 c-293 0 -327 2 -344 17 -24 22 -53 6 -53 -28 0
-19 6 -25 28 -27 18 -2 29 2 33 12 5 14 45 16 334 16 l328 -1 7 -67 c16 -159
79 -321 173 -445 29 -37 52 -69 52 -70 0 -2 -106 -99 -235 -217 -152 -139
-242 -215 -256 -215 -26 0 -45 -26 -36 -49 5 -12 16 -16 34 -14 22 2 29 9 33
31 4 21 63 81 240 242 l234 214 46 -42 c132 -124 310 -204 507 -229 l93 -12 0
-314 c0 -265 -2 -316 -15 -328 -20 -21 -2 -56 27 -52 32 5 46 33 26 55 -14 16
-17 60 -20 329 l-3 311 95 11 c193 23 374 103 505 223 l41 37 234 -213 c176
-160 234 -219 232 -234 -6 -38 58 -51 72 -14 8 21 -23 55 -44 48 -11 -3 -84
57 -225 186 -116 105 -221 201 -233 214 l-24 22 51 63 c98 123 170 299 186
456 l7 71 314 8 c288 7 317 6 334 -10 28 -25 55 -16 55 20 0 23 -5 31 -21 33
-11 2 -27 -4 -34 -13 -11 -13 -56 -15 -330 -15 l-318 0 -7 68 c-10 86 -47 218
-86 295 -31 64 -106 174 -133 196 -9 8 -16 17 -16 21 0 5 102 102 226 217 168
155 233 209 254 211 18 2 31 11 35 23 7 22 -10 49 -31 49 -19 0 -44 -29 -38
-44 3 -8 -82 -94 -221 -222 -125 -115 -231 -211 -237 -213 -5 -2 -24 10 -41
26 -75 71 -190 139 -298 178 -76 27 -217 55 -280 55 l-39 0 0 313 c0 302 1
313 20 330 17 14 18 21 10 37 -12 22 -40 26 -58 8z m213 -719 c72 -15 177 -50
173 -58 -2 -4 -21 -47 -43 -95 -34 -75 -42 -86 -60 -81 -116 36 -137 39 -250
39 -110 0 -185 -11 -257 -39 -17 -7 -26 7 -84 143 l-15 33 36 15 c137 57 341
75 500 43z m291 -115 c142 -88 257 -212 328 -351 28 -55 27 -56 -31 -77 -21
-8 -61 -23 -90 -35 l-52 -20 -33 62 c-41 77 -148 191 -223 237 -31 19 -63 40
-71 45 -13 9 -10 23 27 103 23 51 45 92 49 92 4 0 47 -25 96 -56z m-822 14 c8
-18 25 -59 40 -90 l25 -57 -62 -33 c-86 -46 -202 -164 -249 -254 l-38 -71 -94
35 -94 35 16 36 c53 115 132 218 234 306 60 52 174 125 195 125 7 0 19 -15 27
-32z m1207 -510 c27 -92 37 -204 27 -316 -8 -90 -42 -222 -57 -222 -12 0 -179
65 -186 72 -4 3 1 34 11 69 22 86 22 244 0 328 -9 35 -14 66 -11 70 9 8 167
70 182 70 7 1 22 -32 34 -71z m-1499 -19 c-2 -7 -10 -37 -18 -68 -19 -74 -18
-222 2 -296 27 -98 29 -95 -61 -131 -44 -18 -85 -33 -91 -34 -12 0 -35 66 -55
155 -16 76 -13 258 6 345 27 119 20 115 128 75 56 -21 91 -38 89 -46z m238
-105 c0 -66 -2 -75 -17 -72 -14 3 -19 15 -21 62 -4 68 1 86 23 86 12 0 15 -14
15 -76z m195 56 c-3 -5 5 -10 17 -12 27 -4 37 -28 11 -28 -27 0 -31 -6 -25
-35 3 -16 11 -25 23 -25 11 0 19 -7 19 -15 0 -18 -50 -21 -68 -3 -16 16 -16
125 1 131 16 6 29 -2 22 -13z m575 6 c0 -7 9 -16 20 -19 11 -3 20 -10 20 -16
0 -6 -9 -11 -20 -11 -16 0 -20 -7 -20 -30 0 -23 4 -30 20 -30 11 0 20 -7 20
-15 0 -10 -10 -15 -30 -15 -24 0 -33 6 -40 26 -14 36 -12 111 3 117 21 9 27 7
27 -7z m-650 -32 c21 -24 19 -98 -2 -102 -13 -3 -17 6 -20 39 -4 60 -28 64
-28 5 0 -39 -3 -46 -20 -46 -17 0 -20 7 -20 53 0 30 3 57 7 60 12 13 71 7 83
-9z m222 -1 c10 -9 18 -24 18 -35 0 -14 -8 -18 -35 -18 -19 0 -35 -4 -35 -10
0 -5 14 -10 30 -10 20 0 30 -5 30 -15 0 -21 -58 -20 -82 2 -22 20 -23 61 -1
85 20 22 51 23 75 1z m118 2 c0 -8 -9 -15 -20 -15 -17 0 -20 -7 -20 -46 0 -38
-3 -45 -17 -42 -23 4 -32 96 -11 109 23 15 68 10 68 -6z m104 -1 c10 -9 16
-33 16 -60 0 -38 -3 -45 -17 -42 -13 2 -19 15 -21 46 -2 28 -8 42 -18 42 -10
0 -14 -12 -14 -45 0 -33 -4 -45 -15 -45 -11 0 -15 13 -15 53 0 30 3 57 7 60
12 13 62 7 77 -9z m127 6 c11 -6 19 -21 19 -35 0 -22 -4 -25 -35 -25 -44 0
-46 -18 -2 -22 42 -4 37 -22 -7 -26 -28 -3 -38 2 -51 21 -36 56 17 118 76 87z
m-544 -177 c2 -6 -6 -13 -19 -15 -23 -3 -24 -24 0 -22 20 3 14 -23 -8 -29 -16
-4 -20 -14 -20 -46 0 -30 -4 -41 -15 -41 -22 0 -21 132 1 155 18 18 55 17 61
-2z m243 -8 c0 -17 5 -25 18 -25 30 0 42 -21 42 -72 0 -35 -4 -48 -14 -48 -10
0 -16 13 -18 42 -4 59 -28 63 -28 4 0 -39 -3 -46 -20 -46 -18 0 -20 7 -20 78
0 43 3 82 7 85 15 16 33 6 33 -18z m125 4 c0 -7 -8 -15 -17 -17 -18 -3 -25 18
-11 32 10 10 28 1 28 -15z m-185 -14 c0 -8 -9 -15 -20 -15 -18 0 -20 -7 -20
-60 0 -53 -2 -60 -20 -60 -18 0 -20 7 -20 60 0 53 -2 60 -20 60 -11 0 -20 7
-20 15 0 12 13 15 60 15 47 0 60 -3 60 -15z m-310 -25 c46 -25 26 -110 -27
-110 -57 0 -83 60 -43 100 22 22 42 25 70 10z m612 -7 c12 -11 18 -30 18 -60
0 -36 -3 -43 -20 -43 -17 0 -20 7 -20 45 0 33 -4 45 -15 45 -11 0 -15 -12 -15
-46 0 -38 -3 -45 -17 -42 -23 4 -32 96 -11 109 21 14 60 10 80 -8z m132 11
c12 -5 16 -20 16 -60 0 -64 -24 -97 -67 -92 -39 4 -42 28 -4 28 17 0 31 5 31
10 0 6 -11 10 -25 10 -45 0 -61 67 -23 94 24 17 46 20 72 10z m116 -9 c0 -9
-9 -15 -22 -15 -22 -1 -22 -1 5 -21 48 -36 32 -69 -34 -69 -20 0 -29 5 -29 16
0 10 8 15 23 14 41 -4 42 0 10 20 -37 22 -40 32 -17 54 20 21 64 21 64 1z
m-362 -47 c-2 -41 -7 -54 -20 -56 -15 -3 -18 5 -18 52 0 50 2 56 21 56 18 0
20 -5 17 -52z m677 -181 c17 -5 31 -11 33 -12 6 -5 -50 -109 -88 -165 -40 -58
-137 -156 -205 -207 -36 -26 -132 -83 -141 -83 -9 0 -95 185 -87 187 4 2 36
21 69 43 80 52 181 160 222 237 l33 62 67 -26 c37 -14 81 -30 97 -36z m-1383
-9 c41 -78 163 -202 238 -242 30 -16 56 -30 58 -31 5 -4 -80 -185 -87 -185 -3
1 -34 18 -69 38 -119 71 -242 194 -309 307 -57 97 -57 96 44 137 48 20 89 37
90 37 1 1 17 -27 35 -61z m920 -373 l47 -94 -52 -19 c-198 -74 -436 -74 -634
0 -29 11 -53 21 -53 22 0 12 81 176 87 176 5 0 37 -10 73 -22 54 -18 88 -22
200 -22 120 0 143 3 205 26 39 14 72 26 75 27 3 0 26 -42 52 -94z"/>
<path d="M3650 2240 c0 -5 9 -10 21 -10 11 0 17 5 14 10 -3 6 -13 10 -21 10
-8 0 -14 -4 -14 -10z"/>
<path d="M4000 2240 c0 -5 9 -10 21 -10 11 0 17 5 14 10 -3 6 -13 10 -21 10
-8 0 -14 -4 -14 -10z"/>
<path d="M3331 2017 c-15 -19 -3 -49 18 -45 9 2 16 13 16 27 0 29 -17 37 -34
18z"/>
<path d="M4068 2018 c-7 -19 2 -38 18 -38 8 0 14 10 14 25 0 26 -24 35 -32 13z"/>
<path d="M4127 3553 c-4 -3 -7 -15 -7 -25 0 -10 -4 -18 -10 -18 -5 0 -10 7
-10 16 0 8 -4 13 -10 9 -14 -9 0 -35 20 -35 11 0 20 10 24 25 4 14 11 23 16
20 5 -3 6 -13 3 -23 -5 -14 -3 -15 7 -5 11 10 11 15 0 28 -14 16 -23 19 -33 8z"/>
<path d="M4848 3543 c0 -5 -2 -12 -3 -18 -1 -5 -6 -18 -10 -29 -5 -12 -3 -21
6 -27 20 -13 44 -6 44 12 0 9 6 23 13 31 10 12 9 18 -2 27 -10 8 -16 9 -21 1
-3 -5 -11 -10 -16 -10 -6 0 -7 5 -4 10 3 6 4 10 1 10 -3 0 -7 -3 -8 -7z m29
-46 c-13 -29 -22 -33 -33 -16 -4 7 4 20 17 30 29 22 32 20 16 -14z"/>
<path d="M4127 3488 c-18 -10 -23 -38 -7 -38 5 0 6 8 3 18 -6 15 -5 15 10 4 9
-8 21 -11 27 -7 27 17 -5 39 -33 23z m28 -8 c3 -5 1 -10 -4 -10 -6 0 -11 5
-11 10 0 6 2 10 4 10 3 0 8 -4 11 -10z"/>
<path d="M4811 3456 c2 -2 15 -9 29 -16 23 -12 24 -12 11 3 -7 10 -20 17 -29
17 -8 0 -13 -2 -11 -4z"/>
<path d="M4146 3435 c-23 -17 -14 -20 15 -5 24 14 26 -5 2 -19 -10 -5 -16 -12
-13 -15 10 -9 53 31 46 43 -10 15 -27 13 -50 -4z"/>
<path d="M4786 3418 c3 -25 1 -29 -14 -24 -14 5 -14 3 2 -9 11 -8 23 -15 28
-15 4 0 8 -7 8 -16 0 -8 5 -12 10 -9 7 4 2 20 -12 43 -24 39 -26 37 30 15 27
-11 9 13 -22 29 l-33 16 3 -30z"/>
<path d="M4195 3401 c-3 -6 -3 -16 1 -23 5 -8 2 -9 -11 -4 -15 5 -16 4 -5 -9
14 -17 34 -9 26 11 -6 16 10 29 17 14 3 -6 4 -5 3 2 -3 16 -23 22 -31 9z"/>
<path d="M4730 3394 c0 -13 48 -59 55 -52 3 2 -9 17 -25 33 -17 16 -30 24 -30
19z"/>
<path d="M4226 3365 c-26 -26 -15 -52 17 -39 22 8 28 31 12 44 -10 8 -17 7
-29 -5z m15 -28 c-16 -16 -26 0 -10 19 9 11 15 12 17 4 2 -6 -1 -17 -7 -23z"/>
<path d="M2815 3360 c-3 -5 -1 -18 5 -29 13 -25 -5 -38 -19 -14 -9 16 -10 16
-11 2 0 -18 26 -33 41 -23 6 3 7 20 3 37 -6 28 -5 30 10 18 9 -7 16 -9 16 -3
0 5 -7 13 -16 16 -21 8 -22 8 -29 -4z"/>
<path d="M4710 3349 c0 -5 3 -8 8 -6 4 3 14 -2 22 -11 13 -14 12 -15 -3 -9 -9
3 -17 2 -17 -3 0 -16 21 -22 36 -9 13 10 12 14 -2 30 -19 21 -44 25 -44 8z"/>
<path d="M3246 3338 c5 -8 2 -9 -10 -5 -14 6 -13 1 6 -22 13 -15 24 -27 26
-26 6 5 -12 65 -20 65 -5 0 -6 -5 -2 -12z"/>
<path d="M4266 3325 c-20 -30 -13 -32 14 -5 10 10 15 22 11 25 -5 2 -16 -6
-25 -20z"/>
<path d="M3160 3337 c0 -15 30 -80 36 -74 3 3 -4 22 -15 44 -11 21 -20 34 -21
30z"/>
<path d="M3190 3328 c1 -19 25 -48 41 -48 10 1 9 4 -3 11 -10 5 -18 16 -18 24
0 8 -4 17 -10 20 -5 3 -10 0 -10 -7z"/>
<path d="M4671 3326 c-9 -11 -10 -20 -1 -36 6 -12 14 -19 17 -17 2 3 0 15 -7
26 -13 26 5 29 19 4 5 -10 12 -16 15 -13 2 3 -3 16 -13 28 -15 21 -19 22 -30
8z"/>
<path d="M2851 3302 c-7 -13 -9 -27 -6 -30 3 -4 8 4 12 16 8 32 24 27 18 -5
-5 -27 -5 -27 6 -5 17 31 30 28 24 -5 -4 -23 -4 -25 4 -8 15 32 13 40 -18 52
-26 9 -30 8 -40 -15z"/>
<path d="M3114 3316 c-12 -31 0 -61 25 -61 13 0 27 7 29 15 5 13 3 13 -12 1
-12 -10 -20 -11 -27 -4 -14 14 -6 49 10 45 7 -1 10 2 6 8 -9 14 -25 12 -31 -4z"/>
<path d="M4355 3296 c-19 -46 -19 -46 10 -46 14 0 29 8 35 19 15 28 13 39 -10
51 -18 10 -22 7 -35 -24z m35 -5 c0 -20 -17 -37 -27 -28 -7 8 7 47 18 47 5 0
9 -9 9 -19z"/>
<path d="M4610 3290 c0 -22 5 -40 10 -40 6 0 10 5 10 11 0 6 9 9 20 6 21 -5
18 6 -13 46 -21 26 -27 21 -27 -23z m30 0 c0 -5 -4 -10 -10 -10 -5 0 -10 5
-10 10 0 6 5 10 10 10 6 0 10 -4 10 -10z"/>
<path d="M3028 3299 c-6 -17 3 -69 11 -69 7 0 6 69 -2 76 -3 3 -7 0 -9 -7z"/>
<path d="M2948 3292 c7 -5 10 -16 6 -26 -5 -14 -9 -15 -15 -5 -4 8 -11 10 -15
6 -12 -12 13 -30 31 -23 20 7 16 48 -5 53 -11 4 -12 2 -2 -5z"/>
<path d="M4469 3298 c-7 -15 -6 -59 2 -63 5 -4 9 10 9 29 0 29 -6 46 -11 34z"/>
<path d="M2984 3275 c-11 -27 2 -37 14 -11 7 16 8 26 1 26 -5 0 -12 -7 -15
-15z"/>
<path d="M4428 3283 c10 -4 8 -9 -7 -20 -24 -16 -19 -33 10 -33 14 0 19 7 19
30 0 22 -5 30 -17 29 -12 0 -14 -2 -5 -6z m12 -27 c0 -3 -4 -8 -10 -11 -5 -3
-10 -1 -10 4 0 6 5 11 10 11 6 0 10 -2 10 -4z"/>
<path d="M4504 3279 c-4 -8 -3 -9 4 -5 7 4 12 2 12 -3 0 -6 -4 -11 -10 -11 -5
0 -10 -7 -10 -15 0 -8 9 -15 21 -15 16 0 20 5 17 27 -3 29 -22 41 -34 22z"/>
<path d="M2047 3030 c-89 -23 -164 -84 -208 -170 -18 -35 -23 -62 -23 -120 -1
-124 54 -213 166 -270 51 -25 73 -30 133 -30 103 0 159 22 226 89 70 71 94
133 87 230 -6 77 -32 134 -85 187 -71 71 -200 108 -296 84z m51 -154 c-9 -6
-18 -20 -21 -31 -4 -18 -5 -18 -6 3 -1 30 -21 28 -21 -2 0 -29 16 -42 33 -28
21 16 117 44 132 38 19 -7 20 -92 1 -136 l-13 -33 -13 52 c-7 29 -10 55 -7 58
3 3 9 -11 12 -31 4 -20 11 -33 16 -30 10 6 13 114 3 114 -16 0 -120 -33 -128
-41 -19 -17 2 -19 53 -3 29 8 55 14 57 11 2 -2 -15 -9 -38 -16 -24 -7 -58 -20
-76 -28 -38 -18 -60 -7 -47 24 11 26 5 67 -11 76 -8 4 -14 13 -14 19 0 9 3 9
12 0 18 -18 68 -15 75 5 5 13 8 14 11 3 3 -7 -2 -18 -10 -24z m173 -232 c9
-11 10 -20 2 -32 -9 -15 -31 -17 -153 -17 -122 0 -144 2 -153 17 -8 12 -7 21
2 32 11 13 38 16 151 16 113 0 140 -3 151 -16z"/>
<path d="M2042 2788 c5 -15 28 -18 29 -3 0 6 -7 12 -17 13 -10 3 -15 -1 -12
-10z"/>
<path d="M1973 2635 c-11 -31 12 -36 153 -33 131 3 139 4 139 23 0 19 -8 20
-143 23 -123 2 -143 0 -149 -13z"/>
<path d="M5327 3030 c-167 -42 -269 -213 -223 -372 37 -129 157 -219 290 -219
100 0 160 24 227 90 70 71 94 133 87 230 -6 77 -32 134 -85 187 -71 71 -200
108 -296 84z m58 -165 c28 -27 33 -71 11 -101 -13 -17 -12 -20 17 -34 19 -10
34 -26 39 -44 8 -33 2 -50 -7 -20 -15 47 -20 49 -95 49 -75 0 -80 -2 -95 -49
-9 -30 -15 -13 -7 20 5 18 20 34 39 44 29 14 30 16 17 35 -20 26 -10 84 18
108 27 22 34 22 63 -8z m198 -57 c6 -64 4 -68 -34 -68 l-29 0 0 -63 c0 -36 -5
-68 -12 -75 -7 -7 -40 -12 -79 -12 -64 0 -68 1 -109 41 -28 28 -39 44 -32 51
13 13 35 0 28 -17 -7 -20 20 -38 44 -30 15 5 20 13 17 26 -6 23 10 36 26 20 8
-8 4 -18 -16 -39 -15 -16 -24 -31 -20 -35 11 -12 118 -8 131 5 7 7 12 38 12
69 l0 58 -37 3 -38 3 4 50 c1 28 5 53 8 58 2 4 33 7 67 7 l63 0 6 -52z m-223
-130 c0 -7 -4 -19 -9 -26 -7 -11 -10 -10 -15 3 -3 9 -4 21 0 26 8 13 24 11 24
-3z"/>
<path d="M5323 2858 c-19 -24 -23 -64 -8 -84 8 -10 15 -27 15 -36 0 -11 8 -18
20 -18 12 0 20 7 20 18 0 9 7 26 15 36 24 32 1 96 -35 96 -10 0 -22 -6 -27
-12z m37 -2 c0 -2 -7 -7 -16 -10 -8 -3 -12 -2 -9 4 6 10 25 14 25 6z"/>
<path d="M5454 2836 c-3 -8 -4 -25 -2 -38 3 -21 9 -23 61 -26 l57 -3 0 41 0
40 -55 0 c-39 0 -57 -4 -61 -14z"/>
<path d="M5477 2753 c18 -2 50 -2 70 0 21 2 7 4 -32 4 -38 0 -55 -2 -38 -4z"/>
<path d="M1740 2654 l-35 -14 34 5 c34 5 48 12 40 19 -2 2 -20 -3 -39 -10z"/>
<path d="M2470 2637 c0 -8 11 -19 25 -25 15 -7 25 -8 25 -2 0 6 -6 10 -14 10
-8 0 -18 5 -22 11 -5 8 1 10 19 7 15 -3 24 -1 21 3 -8 14 -54 10 -54 -4z"/>
<path d="M1738 2623 c-10 -2 -18 -9 -18 -14 0 -6 7 -6 19 1 24 12 31 13 31 2
0 -5 -10 -14 -22 -20 -14 -6 -17 -11 -8 -11 25 -1 43 16 37 33 -7 16 -9 17
-39 9z"/>
<path d="M5043 2592 c-36 -17 -44 -33 -13 -25 24 6 27 -12 4 -21 -9 -4 -14 -9
-11 -12 6 -6 67 23 67 32 0 4 -7 4 -15 1 -21 -9 -28 10 -8 22 31 17 10 19 -24
3z"/>
<path d="M2455 2590 c-8 -13 13 -40 31 -40 20 0 27 19 14 35 -14 17 -36 19
-45 5z m35 -10 c8 -5 12 -12 9 -15 -8 -8 -39 5 -39 16 0 11 11 11 30 -1z"/>
<path d="M5730 2574 c0 -12 6 -15 25 -10 20 5 23 3 18 -11 -4 -11 -3 -14 5 -9
7 4 12 14 12 23 0 11 -6 14 -26 9 -17 -5 -23 -3 -19 4 3 5 1 10 -4 10 -6 0
-11 -7 -11 -16z"/>
<path d="M1763 2573 c-13 -5 -18 -35 -7 -46 7 -7 74 24 74 35 0 4 -7 5 -15 2
-8 -4 -15 -1 -15 5 0 11 -16 13 -37 4z m19 -25 c-6 -6 -15 -8 -19 -4 -4 4 -1
11 7 16 19 12 27 3 12 -12z"/>
<path d="M2431 2546 c2 -2 15 -9 29 -15 24 -11 24 -11 6 3 -16 13 -49 24 -35
12z"/>
<path d="M5698 2526 c-18 -25 -16 -30 22 -51 10 -5 8 -1 -4 13 -21 24 -16 28
17 11 21 -12 21 -11 5 8 -20 22 -25 44 -6 25 7 -7 17 -12 23 -12 5 0 1 7 -9
15 -25 19 -28 19 -48 -9z"/>
<path d="M2400 2532 c0 -6 12 -17 26 -27 21 -13 29 -14 38 -4 8 9 8 10 -1 5
-6 -3 -14 -2 -18 4 -9 15 -45 32 -45 22z"/>
<path d="M5057 2522 c-16 -17 -16 -20 -2 -32 10 -8 15 -9 15 -1 0 6 -5 11 -12
11 -15 0 -1 13 17 16 8 1 13 -2 9 -7 -3 -5 0 -9 6 -9 14 0 9 32 -6 37 -6 2
-18 -5 -27 -15z"/>
<path d="M1794 2516 c-17 -13 -18 -16 -3 -31 14 -14 17 -14 35 6 19 22 19 22
-3 10 -32 -16 -38 -14 -18 9 21 23 17 26 -11 6z"/>
<path d="M2385 2490 c-6 -10 15 -50 26 -50 4 0 12 7 19 15 11 13 10 18 -6 30
-23 17 -31 18 -39 5z m31 -18 c1 -7 0 -8 -3 -2 -2 5 -9 8 -14 4 -5 -3 -9 0 -9
6 0 15 23 7 26 -8z"/>
<path d="M5110 2491 c0 -6 -7 -11 -15 -11 -17 0 -20 -26 -4 -36 6 -3 20 2 31
13 17 18 17 21 4 33 -11 8 -16 9 -16 1z m4 -26 c-7 -16 -24 -21 -24 -6 0 8 7
13 27 20 1 1 0 -6 -3 -14z"/>
<path d="M1845 2481 c-3 -6 -3 -16 1 -23 5 -8 2 -9 -10 -5 -12 5 -16 3 -14 -5
8 -24 33 -14 30 11 -2 21 0 22 15 10 14 -12 16 -12 12 0 -7 19 -25 25 -34 12z"/>
<path d="M5142 2449 c-13 -16 -20 -29 -15 -29 9 1 47 50 41 54 -1 2 -13 -10
-26 -25z"/>
<path d="M5650 2466 c0 -7 7 -19 15 -26 16 -14 45 -7 45 11 0 8 -4 8 -12 1 -9
-7 -17 -5 -28 6 -13 14 -12 15 3 9 9 -3 17 -2 17 3 0 6 -9 10 -20 10 -11 0
-20 -6 -20 -14z"/>
<path d="M1882 2445 c-12 -15 -19 -32 -15 -38 4 -7 8 -6 11 3 2 8 11 20 19 27
8 6 13 17 11 24 -2 7 -13 1 -26 -16z"/>
<path d="M2331 2451 c-20 -15 -22 -21 -12 -39 7 -12 17 -22 23 -22 9 0 9 3 0
12 -7 7 -12 19 -12 28 0 10 6 8 20 -10 11 -14 20 -20 20 -14 0 5 -5 15 -12 22
-6 6 -9 15 -5 19 4 3 14 -2 22 -13 8 -10 15 -14 15 -8 0 6 -8 18 -18 27 -16
14 -19 14 -41 -2z"/>
<path d="M5162 2432 c-14 -19 -18 -33 -12 -37 5 -3 10 1 10 9 0 8 7 19 16 24
9 5 15 15 12 22 -3 9 -12 2 -26 -18z"/>
<path d="M5616 2448 c17 -27 38 -47 45 -42 4 2 -3 16 -15 29 -24 26 -43 34
-30 13z"/>
<path d="M1906 2418 c-21 -29 -13 -35 13 -9 11 11 16 23 11 26 -5 3 -16 -5
-24 -17z"/>
<path d="M5187 2410 c-10 -16 -14 -30 -9 -30 6 0 12 7 16 15 3 8 10 15 16 15
7 0 7 -6 0 -21 -7 -11 -9 -23 -6 -26 3 -3 11 7 18 22 10 23 10 29 0 33 -7 2
-10 8 -6 13 3 5 1 9 -3 9 -5 0 -17 -13 -26 -30z"/>
<path d="M5584 2415 c-4 -8 -11 -12 -17 -8 -7 4 -8 0 -3 -12 5 -15 4 -16 -9
-5 -9 8 -15 8 -15 2 0 -6 5 -14 11 -17 6 -4 14 -17 19 -29 7 -17 9 -15 9 17 1
30 5 37 21 37 21 0 27 -15 10 -23 -6 -3 -5 -4 2 -3 7 1 14 10 16 19 2 12 -3
17 -20 17 -18 0 -20 2 -8 10 10 7 11 10 2 10 -7 0 -15 -7 -18 -15z"/>
<path d="M1940 2400 c-6 -12 -9 -24 -7 -27 3 -2 11 5 17 17 6 12 9 24 7 27 -3
2 -11 -5 -17 -17z"/>
<path d="M2263 2404 c-8 -21 23 -52 38 -37 14 14 2 53 -17 53 -8 0 -17 -7 -21
-16z m34 -9 c8 -22 -6 -33 -17 -15 -13 20 -12 30 0 30 6 0 13 -7 17 -15z"/>
<path d="M1988 2401 c10 -6 8 -10 -8 -14 -24 -6 -23 -30 2 -35 9 -2 19 6 23
17 7 24 -1 41 -18 41 -8 0 -8 -3 1 -9z m2 -31 c0 -5 -5 -10 -11 -10 -5 0 -7 5
-4 10 3 6 8 10 11 10 2 0 4 -4 4 -10z"/>
<path d="M2025 2380 c-4 -17 -5 -34 -2 -36 3 -3 8 9 12 26 4 17 5 34 2 36 -3
3 -8 -9 -12 -26z"/>
<path d="M2128 2405 c-3 -6 -8 -26 -12 -45 -3 -19 -3 -29 0 -22 3 6 12 12 19
12 7 0 16 -6 18 -12 4 -9 6 -8 6 2 0 23 -24 75 -31 65z"/>
<path d="M2220 2406 c0 -18 22 -56 32 -56 9 0 9 3 0 12 -7 7 -12 20 -12 30 0
10 -4 18 -10 18 -5 0 -10 -2 -10 -4z"/>
<path d="M5487 2403 c-13 -12 -7 -23 18 -35 27 -12 25 -31 -3 -21 -13 5 -15 3
-5 -7 16 -17 45 -5 41 17 -2 9 -14 20 -28 23 -24 6 -24 6 -5 18 15 9 16 11 4
12 -9 0 -19 -3 -22 -7z"/>
<path d="M5240 2385 c-13 -16 -7 -45 9 -45 5 0 13 4 16 10 3 6 -1 7 -9 4 -18
-7 -20 4 -7 25 5 8 14 10 21 6 9 -5 11 -4 6 3 -10 16 -21 15 -36 -3z"/>
<path d="M2171 2379 c-2 -25 22 -50 38 -40 12 8 12 14 4 33 -11 23 -12 22 -13
-7 l-1 -30 -14 30 c-7 17 -14 23 -14 14z"/>
<path d="M5295 2379 c-4 -5 -3 -8 2 -7 4 2 9 0 11 -4 5 -17 2 -28 -9 -28 -5 0
-7 5 -4 10 3 6 1 10 -4 10 -19 0 -12 -27 8 -33 19 -5 31 10 31 38 0 16 -27 27
-35 14z"/>
<path d="M5344 2355 c-10 -26 1 -35 13 -10 6 14 7 25 2 25 -5 0 -12 -7 -15
-15z"/>
<path d="M5380 2346 c0 -28 14 -41 32 -30 8 5 6 10 -8 15 -17 7 -17 8 -1 8 24
1 22 31 -3 31 -15 0 -20 -7 -20 -24z"/>
<path d="M2017 1796 c-173 -62 -254 -254 -174 -413 54 -106 155 -167 277 -167
127 -1 227 60 285 174 27 52 31 156 10 221 -24 72 -110 159 -179 182 -59 20
-166 21 -219 3z m192 -137 c77 -43 112 -146 74 -218 -64 -122 -234 -135 -308
-23 -55 84 -30 188 60 243 42 26 126 25 174 -2z"/>
<path d="M2052 1655 c-19 -8 -32 -20 -30 -27 7 -21 23 -17 46 13 13 16 22 29
20 29 -2 -1 -18 -7 -36 -15z"/>
<path d="M2179 1642 c15 -22 27 -29 39 -25 15 6 15 4 4 -9 -9 -11 -11 -29 -6
-52 6 -33 9 -36 40 -36 39 0 39 -2 19 48 -15 37 -43 64 -94 92 l-24 12 22 -30z"/>
<path d="M2082 1635 l-23 -30 20 -9 c27 -12 33 -5 29 35 l-3 34 -23 -30z"/>
<path d="M2130 1625 c0 -37 2 -38 37 -29 l23 6 -21 29 c-27 38 -39 37 -39 -6z"/>
<path d="M1980 1588 c-29 -48 -26 -68 9 -68 22 0 30 6 35 24 3 13 8 30 11 38
3 7 -4 19 -15 26 -18 11 -22 9 -40 -20z"/>
<path d="M2045 1572 c-14 -37 -6 -52 30 -52 32 0 35 3 35 29 0 24 -5 29 -30
33 -19 3 -31 0 -35 -10z"/>
<path d="M2158 1582 c-23 -3 -28 -8 -28 -33 0 -27 2 -29 41 -29 40 0 41 1 34
28 -8 34 -14 38 -47 34z"/>
<path d="M1960 1488 c0 -13 9 -38 21 -57 19 -31 21 -32 38 -17 16 14 17 23 9
56 -9 35 -14 40 -39 40 -23 0 -29 -4 -29 -22z"/>
<path d="M2040 1481 c0 -35 12 -45 46 -37 19 5 24 13 24 36 0 28 -3 30 -35 30
-32 0 -35 -2 -35 -29z"/>
<path d="M2130 1481 c0 -48 64 -60 73 -14 7 37 2 43 -39 43 -31 0 -34 -3 -34
-29z"/>
<path d="M2227 1503 c-3 -4 -8 -24 -12 -43 -5 -28 -2 -37 13 -47 16 -9 21 -7
34 15 9 15 18 38 20 52 2 21 -2 26 -24 28 -14 2 -28 -1 -31 -5z"/>
<path d="M2073 1422 c-9 -6 -6 -16 12 -37 l24 -30 1 38 c0 37 -11 46 -37 29z"/>
<path d="M2130 1393 l1 -38 25 29 c20 23 23 31 12 37 -27 18 -38 9 -38 -28z"/>
<path d="M2026 1401 c-6 -10 10 -25 37 -34 17 -6 17 -6 0 18 -19 26 -29 30
-37 16z"/>
<path d="M2185 1384 l-16 -25 30 16 c35 18 37 21 17 28 -9 4 -21 -5 -31 -19z"/>
<path d="M5299 1796 c-96 -34 -168 -109 -195 -204 -41 -139 35 -292 174 -355
71 -32 180 -30 253 4 147 69 214 223 162 375 -23 67 -110 154 -177 177 -58 20
-166 21 -217 3z m21 -161 c0 14 40 14 40 0 0 -5 5 -3 10 5 9 13 10 13 10 0 0
-9 3 -11 8 -5 4 6 14 10 22 10 8 0 18 -4 22 -10 5 -6 8 -4 8 5 0 13 1 13 10 0
9 -13 10 -13 10 0 0 13 1 13 10 0 8 -12 10 -12 10 -1 0 11 3 11 15 1 10 -8 15
-9 15 -2 0 6 10 1 23 -11 14 -14 18 -25 12 -29 -6 -5 -4 -8 5 -8 13 0 13 -1 0
-10 -13 -9 -13 -10 0 -10 10 0 11 -3 4 -8 -14 -9 -14 -42 0 -42 6 0 4 -5 -4
-10 -13 -9 -13 -10 0 -10 13 0 13 -1 0 -10 -13 -9 -13 -10 0 -10 13 0 13 -1 0
-10 -13 -9 -13 -10 0 -10 13 0 13 -1 0 -10 -13 -9 -13 -11 0 -20 13 -9 13 -10
0 -10 -9 0 -11 -3 -5 -8 6 -4 2 -15 -12 -29 -13 -12 -23 -19 -23 -15 0 4 -9 8
-20 8 -11 0 -20 -5 -20 -11 0 -5 -5 -3 -10 5 -9 13 -10 13 -10 0 0 -13 -1 -13
-10 0 -8 12 -10 12 -10 1 0 -11 -3 -11 -15 -1 -12 10 -15 10 -15 -1 0 -11 -2
-11 -10 1 -9 13 -10 13 -10 0 0 -13 -1 -13 -10 0 -9 13 -10 13 -10 0 0 -13 -1
-13 -10 0 -9 13 -11 13 -20 0 -9 -13 -10 -13 -10 0 0 10 -3 11 -8 4 -5 -7 -15
-3 -30 13 -14 14 -18 23 -10 23 9 0 9 3 -2 10 -12 8 -12 10 -1 10 11 0 11 3 1
15 -10 12 -10 15 1 15 11 0 11 2 -1 10 -13 9 -13 10 0 10 13 0 13 1 0 10 -13
9 -13 10 0 10 13 0 13 1 0 10 -8 5 -10 10 -5 10 6 0 11 9 11 20 0 11 -5 20
-11 20 -5 0 -3 5 5 10 13 9 13 10 0 10 -13 0 -13 1 0 10 11 7 11 10 2 10 -8 0
-4 9 10 23 15 16 25 20 30 13 5 -7 8 -7 8 -1z"/>
<path d="M5290 1505 l0 -116 118 3 117 3 0 110 0 110 -117 3 -118 3 0 -116z"/>
<path d="M5000 1425 c-14 -17 -7 -45 12 -44 10 0 10 2 1 6 -7 2 -13 11 -13 19
0 13 5 15 43 18 7 1 11 -8 9 -19 -3 -15 -1 -17 7 -9 17 16 2 44 -24 44 -12 0
-28 -7 -35 -15z"/>
<path d="M5754 1429 c-12 -19 13 -34 32 -18 16 12 17 12 11 -4 -4 -11 -3 -16
3 -12 15 9 12 35 -3 35 -7 0 -19 -6 -26 -12 -10 -11 -11 -10 -6 5 8 19 0 23
-11 6z"/>
<path d="M5731 1363 c-11 -23 -10 -29 5 -40 29 -21 41 -14 14 8 l-25 21 30 -6
c24 -5 27 -4 13 4 -26 16 -23 33 3 20 11 -7 23 -9 26 -6 5 4 -38 26 -51 26 -2
0 -8 -12 -15 -27z"/>
<path d="M5022 1364 c-12 -8 -28 -12 -35 -8 -9 5 -9 4 -1 -6 14 -14 50 -5 58
15 7 19 6 19 -22 -1z"/>
<path d="M5059 1351 c11 -7 9 -11 -8 -20 -24 -13 -29 -41 -7 -41 23 0 46 11
46 23 0 7 -4 7 -12 -1 -7 -7 -19 -12 -27 -12 -11 1 -7 8 12 24 25 20 26 24 12
30 -24 9 -32 7 -16 -3z"/>
<path d="M5701 1306 c-8 -10 -6 -17 8 -30 22 -20 41 -14 40 12 0 11 -3 12 -6
5 -2 -7 -9 -13 -14 -13 -4 0 -6 6 -3 14 7 19 -11 29 -25 12z m19 -6 c0 -5 -5
-10 -11 -10 -5 0 -7 5 -4 10 3 6 8 10 11 10 2 0 4 -4 4 -10z"/>
<path d="M5071 1271 c-10 -18 -6 -31 10 -31 5 0 5 8 2 18 -6 14 -4 15 9 5 16
-14 28 -8 28 14 0 20 -38 16 -49 -6z"/>
<path d="M5683 1255 c16 -14 33 -22 39 -18 7 4 3 9 -10 14 -12 5 -22 13 -22
19 0 5 -8 10 -17 10 -14 -1 -12 -6 10 -25z"/>
<path d="M5115 1240 c-24 -27 -16 -33 13 -10 12 10 18 21 14 24 -5 3 -17 -3
-27 -14z"/>
<path d="M5647 1253 c-15 -14 -6 -33 16 -33 18 0 19 -2 7 -11 -13 -9 -13 -10
0 -6 21 5 19 33 -2 29 -12 -2 -16 2 -12 13 6 16 2 20 -9 8z"/>
<path d="M1897 1234 c-4 -4 -4 -18 -1 -30 6 -25 -10 -34 -19 -11 -4 7 -6 6 -6
-4 -1 -23 25 -31 39 -13 10 11 10 17 0 29 -17 21 -5 31 16 14 15 -12 17 -12
12 1 -5 16 -30 25 -41 14z"/>
<path d="M2325 1217 c-10 -38 17 -69 40 -47 13 14 12 19 -9 45 l-24 30 -7 -28z
m33 -26 c3 -8 -1 -12 -9 -9 -7 2 -15 10 -17 17 -3 8 1 12 9 9 7 -2 15 -10 17
-17z"/>
<path d="M5141 1211 c-27 -37 -26 -39 5 -35 39 4 55 32 30 53 -11 9 -18 6 -35
-18z m39 0 c0 -12 -20 -25 -27 -18 -7 7 6 27 18 27 5 0 9 -4 9 -9z"/>
<path d="M5625 1216 c4 -14 1 -17 -11 -12 -11 4 -8 -3 8 -22 28 -35 34 -26 13
19 -8 19 -13 26 -10 15z"/>
<path d="M2284 1208 c3 -10 -1 -21 -9 -25 -11 -7 -11 -12 1 -33 l14 -25 -6 28
c-7 31 3 35 22 10 22 -29 16 0 -7 32 -12 17 -19 22 -15 13z"/>
<path d="M5197 1189 c-10 -18 -16 -34 -13 -36 2 -3 9 5 16 16 6 12 15 21 21
21 6 0 6 -8 -1 -21 -7 -11 -9 -23 -7 -26 3 -2 11 5 17 17 8 15 8 25 1 34 -6 7
-8 16 -4 19 3 4 2 7 -3 7 -5 0 -17 -14 -27 -31z"/>
<path d="M5550 1205 c-16 -19 -5 -32 30 -37 l25 -5 -25 -11 -25 -12 25 3 c35
3 39 34 6 43 -14 3 -26 10 -26 16 0 5 5 6 10 3 6 -3 10 -1 10 4 0 16 -16 13
-30 -4z"/>
<path d="M1931 1173 c-17 -36 -13 -41 10 -13 l21 25 -6 -30 c-5 -28 -5 -28 6
-7 15 31 30 28 22 -5 -4 -22 -3 -25 5 -13 18 26 12 45 -18 57 -26 9 -30 8 -40
-14z"/>
<path d="M2202 1178 c-10 -14 0 -52 16 -62 15 -9 42 4 42 19 0 17 -19 30 -28
20 -4 -4 -1 -10 6 -12 6 -3 9 -9 6 -14 -9 -15 -34 10 -34 33 0 15 5 18 21 13
15 -5 19 -4 15 4 -9 15 -31 14 -44 -1z"/>
<path d="M5251 1160 c-1 -15 -6 -31 -13 -38 -7 -7 -8 -12 -3 -12 5 0 18 11 30
25 l20 26 13 -22 c12 -19 12 -21 -3 -16 -9 4 -14 3 -10 -3 9 -15 35 -12 35 3
0 7 -6 19 -12 26 -11 11 -10 13 5 8 10 -4 16 -3 13 2 -8 13 -56 10 -57 -3 0
-6 -4 -2 -9 9 -8 18 -9 18 -9 -5z"/>
<path d="M5471 1165 c0 -11 4 -29 9 -40 l9 -20 0 20 c0 11 -4 29 -9 40 l-9 20
0 -20z"/>
<path d="M2024 1158 c-4 -7 -3 -8 4 -4 8 5 12 0 12 -13 0 -12 -5 -21 -11 -21
-5 0 -7 5 -4 10 3 6 1 10 -4 10 -6 0 -11 -7 -11 -15 0 -8 9 -15 20 -15 11 0
20 4 20 9 0 5 3 16 6 24 6 17 -22 31 -32 15z"/>
<path d="M2110 1135 c0 -19 5 -35 10 -35 6 0 10 16 10 35 0 19 -4 35 -10 35
-5 0 -10 -16 -10 -35z"/>
<path d="M2071 1128 c1 -22 3 -26 6 -13 3 11 10 26 15 33 8 9 6 12 -6 12 -12
0 -16 -9 -15 -32z"/>
<path d="M5338 1135 c-3 -14 -1 -25 3 -25 5 0 9 11 9 25 0 14 -2 25 -4 25 -2
0 -6 -11 -8 -25z"/>
<path d="M5370 1145 c-7 -8 -10 -22 -6 -30 6 -17 36 -21 36 -5 0 6 -3 9 -7 8
-8 -3 -13 5 -13 22 0 5 7 6 17 3 11 -4 14 -3 9 5 -10 16 -21 15 -36 -3z"/>
<path d="M5420 1151 c0 -6 6 -8 13 -5 7 2 13 -4 14 -16 2 -22 -12 -27 -20 -7
-3 7 -6 5 -6 -5 -1 -12 6 -18 20 -18 16 0 20 5 17 27 -3 26 -38 48 -38 24z"/>
<path d="M2917 881 c-72 -29 -132 -83 -164 -149 -24 -48 -28 -69 -27 -132 1
-47 7 -89 18 -113 24 -55 92 -125 151 -155 42 -22 63 -26 135 -26 69 0 94 4
135 24 59 29 116 84 147 142 33 61 33 194 0 255 -59 112 -141 164 -267 170
-62 2 -91 -1 -128 -16z m173 -101 c0 -5 -11 -10 -25 -10 -16 0 -25 -6 -25 -15
0 -8 -4 -15 -10 -15 -5 0 -10 7 -10 15 0 9 -9 15 -25 15 -14 0 -25 5 -25 10 0
6 27 10 60 10 33 0 60 -4 60 -10z m38 -62 c16 -14 16 -165 -1 -198 -12 -24
-17 -25 -97 -25 -80 0 -85 1 -97 25 -17 33 -17 184 0 198 24 20 170 20 195 0z
m-162 -247 c-3 -4 -10 -21 -16 -36 -6 -15 -13 -26 -15 -23 -8 8 16 68 27 68 5
0 7 -4 4 -9z m153 -23 c14 -39 5 -51 -9 -13 -6 15 -13 32 -16 36 -3 5 -1 9 4
9 6 0 15 -14 21 -32z"/>
<path d="M2942 708 c-7 -7 -12 -40 -12 -79 l0 -68 43 -3 c29 -2 42 -8 42 -18
0 -23 -46 -25 -63 -3 -13 17 -14 17 -10 -2 3 -18 11 -20 88 -20 77 0 85 2 88
20 4 19 3 19 -10 2 -17 -22 -63 -20 -63 3 0 10 13 16 43 18 l42 3 0 68 c0 39
-5 72 -12 79 -7 7 -42 12 -88 12 -46 0 -81 -5 -88 -12z m173 -68 l0 -45 -85 0
-85 0 -3 33 c-6 60 -1 63 90 60 l83 -3 0 -45z"/>
<path d="M2950 640 l0 -30 75 0 75 0 0 30 0 30 -75 0 -75 0 0 -30z"/>
<path d="M2970 540 c0 -5 7 -10 15 -10 8 0 15 5 15 10 0 6 -7 10 -15 10 -8 0
-15 -4 -15 -10z"/>
<path d="M3060 540 c0 -5 7 -10 15 -10 8 0 15 5 15 10 0 6 -7 10 -15 10 -8 0
-15 -4 -15 -10z"/>
<path d="M4373 879 c-64 -25 -131 -88 -163 -154 -19 -39 -24 -66 -24 -120 2
-320 439 -421 583 -134 37 73 41 155 14 235 -24 70 -110 154 -182 177 -71 23
-163 21 -228 -4z m219 -147 c3 30 6 33 41 36 32 3 37 0 37 -18 0 -20 12 -53
43 -118 8 -17 8 -28 -1 -42 -7 -11 -12 -27 -12 -35 0 -8 -4 -15 -9 -15 -5 0
-12 -18 -16 -40 l-7 -40 -174 0 -174 0 0 101 c0 92 -2 101 -17 94 -26 -9 -10
5 82 73 l79 60 62 -44 63 -45 3 33z"/>
<path d="M4393 722 l-62 -47 -1 -102 0 -103 130 0 130 0 0 29 c0 16 -7 34 -16
42 -12 10 -15 29 -13 85 l3 73 -46 35 c-26 20 -50 36 -55 35 -4 0 -36 -21 -70
-47z m117 -12 c43 -36 36 -39 -10 -5 l-33 25 -34 -26 c-40 -30 -45 -19 -5 13
35 29 41 29 82 -7z m10 -125 l0 -55 -55 0 -55 0 0 48 c0 27 3 52 7 55 3 4 28
7 55 7 l48 0 0 -55z"/>
<path d="M4427 624 c-14 -15 -6 -34 14 -34 14 0 19 5 17 17 -3 18 -20 27 -31
17z"/>
<path d="M4477 624 c-14 -15 -6 -34 14 -34 14 0 19 5 17 17 -3 18 -20 27 -31
17z"/>
<path d="M4425 570 c-11 -19 6 -30 46 -30 32 0 39 3 39 20 0 17 -7 20 -39 20
-22 0 -43 -4 -46 -10z"/>
<path d="M4606 728 c-9 -36 -8 -38 27 -38 32 0 33 2 29 30 -3 23 -9 30 -27 30
-15 0 -25 -8 -29 -22z"/>
<path d="M4580 668 c0 -5 26 -8 57 -8 31 0 54 3 50 6 -9 9 -107 10 -107 2z"/>
<path d="M4574 636 c-3 -8 -4 -24 -2 -36 3 -19 10 -22 61 -23 l57 -2 0 37 0
38 -55 0 c-39 0 -57 -4 -61 -14z"/>
<path d="M4608 553 c18 -2 45 -2 60 0 15 2 0 4 -33 4 -33 0 -45 -2 -27 -4z"/>
<path d="M4600 526 c0 -30 13 -46 36 -46 14 0 24 6 24 14 0 8 3 21 6 30 5 13
-1 16 -30 16 -24 0 -36 -5 -36 -14z"/>
<path d="M2610 603 c0 -5 16 -8 35 -9 19 0 35 3 35 8 0 4 -16 8 -35 8 -19 0
-35 -3 -35 -7z"/>
<path d="M3388 599 c-6 -4 -6 -9 -2 -12 12 -6 74 3 74 12 0 8 -59 8 -72 0z"/>
<path d="M2623 573 c33 -5 35 -20 5 -26 -16 -4 -13 -5 7 -4 45 3 40 32 -5 33
-26 1 -28 1 -7 -3z"/>
<path d="M3400 550 c0 -15 6 -20 28 -19 23 2 24 2 5 6 -13 2 -23 8 -23 13 0 5
10 11 23 13 19 4 18 4 -5 6 -22 1 -28 -4 -28 -19z"/>
<path d="M2620 520 c-11 -7 -1 -9 32 -7 25 1 44 5 41 10 -6 10 -55 9 -73 -3z"/>
<path d="M3390 501 c0 -23 35 -34 50 -16 7 8 7 15 1 19 -5 3 -12 0 -14 -6 -3
-8 -6 -6 -6 5 -1 23 -31 22 -31 -2z"/>
<path d="M2635 491 c-17 -7 -15 -9 13 -13 22 -3 32 -1 32 9 0 14 -15 16 -45 4z"/>
<path d="M3366 448 c-8 -33 -8 -34 19 -46 14 -6 25 -7 25 -2 0 5 -9 12 -20 15
-11 3 -20 11 -20 16 0 6 7 6 19 -1 32 -17 38 -11 11 11 l-25 21 30 -7 c22 -4
26 -3 15 5 -25 16 -47 11 -54 -12z"/>
<path d="M2637 454 c-9 -9 34 -85 44 -78 5 3 9 12 9 21 0 10 6 13 16 9 8 -3
12 -2 9 4 -3 6 -13 10 -22 10 -12 0 -13 3 -4 14 9 11 9 16 0 22 -8 4 -9 3 -5
-4 4 -7 3 -12 -3 -12 -5 0 -13 5 -16 10 -7 11 -19 13 -28 4z m28 -14 c3 -5 1
-10 -4 -10 -6 0 -11 5 -11 10 0 6 2 10 4 10 3 0 8 -4 11 -10z m15 -35 c0 -8
-2 -15 -4 -15 -2 0 -6 7 -10 15 -3 8 -1 15 4 15 6 0 10 -7 10 -15z"/>
<path d="M2716 379 c-14 -11 -26 -25 -26 -30 0 -6 7 -3 16 5 8 9 19 16 24 16
4 0 10 7 14 15 7 20 4 19 -28 -6z"/>
<path d="M3334 389 c-9 -16 21 -43 40 -36 9 4 16 12 15 19 0 10 -2 10 -6 1 -8
-21 -25 -14 -18 7 7 22 -18 29 -31 9z"/>
<path d="M3301 352 c-6 -11 -7 -22 -4 -26 3 -3 -3 -6 -15 -6 -12 0 -22 -4 -22
-10 0 -5 3 -9 8 -9 18 3 32 -2 32 -12 0 -6 -7 -9 -15 -5 -8 3 -15 0 -15 -6 0
-6 -8 -4 -19 6 -15 13 -20 14 -29 4 -8 -10 -6 -20 8 -38 11 -14 20 -20 20 -14
0 5 -5 15 -12 22 -6 6 -9 15 -5 19 4 3 14 -2 22 -13 8 -10 15 -14 15 -8 0 7
12 15 26 18 21 6 24 9 13 22 -6 8 -9 17 -5 21 3 4 12 -2 20 -12 15 -21 46 -14
46 11 0 11 -6 15 -20 11 -15 -4 -20 0 -20 13 0 27 -17 34 -29 12z m59 -42 c0
-5 -4 -10 -10 -10 -5 0 -10 5 -10 10 0 6 5 10 10 10 6 0 10 -4 10 -10z"/>
<path d="M2728 346 c-26 -19 -22 -26 7 -13 14 7 25 15 25 20 0 11 -13 8 -32
-7z"/>
<path d="M2755 320 c-15 -16 -16 -22 -5 -35 12 -14 15 -14 34 2 19 17 20 17 7
1 -11 -14 -11 -21 -1 -33 7 -8 17 -12 22 -9 6 4 5 9 -2 14 -18 11 -3 30 17 23
11 -4 14 -3 9 5 -4 7 -14 12 -22 12 -8 0 -14 5 -14 12 0 6 -7 4 -18 -5 -26
-24 -39 -21 -17 3 10 11 16 22 13 25 -3 3 -13 -4 -23 -15z"/>
<path d="M4239 333 c-1 -4 0 -18 1 -30 2 -26 -16 -31 -23 -8 -4 11 -4 10 -3
-2 1 -11 9 -18 21 -18 16 0 19 6 17 28 -3 26 11 37 21 17 3 -6 4 -5 3 2 -3 15
-35 24 -37 11z"/>
<path d="M4731 316 c-15 -18 11 -51 33 -43 9 4 16 12 16 19 0 9 -3 9 -10 -2
-9 -13 -11 -13 -20 0 -5 8 -10 20 -10 25 0 6 4 4 9 -4 5 -8 11 -9 15 -3 9 15
-21 23 -33 8z"/>
<path d="M4671 281 c-20 -15 -22 -21 -11 -40 6 -13 14 -20 17 -18 2 3 0 15 -7
26 -7 13 -7 21 -1 21 6 0 15 -9 21 -21 7 -11 14 -18 17 -15 3 3 0 12 -7 21 -7
9 -10 18 -6 22 3 4 13 -2 21 -13 8 -10 14 -14 14 -9 0 10 -23 45 -30 45 -2 0
-15 -9 -28 -19z"/>
<path d="M2842 265 c-15 -32 -15 -45 -1 -45 5 0 8 4 5 9 -3 4 1 17 9 27 16 22
19 34 7 34 -5 0 -14 -11 -20 -25z"/>
<path d="M4270 271 c-17 -32 -11 -38 11 -11 l21 25 -7 -29 -6 -30 20 25 c22
26 28 20 11 -12 -7 -12 -7 -19 -1 -19 20 0 24 43 5 57 -25 18 -42 16 -54 -6z"/>
<path d="M3137 274 c-4 -4 -7 -17 -7 -28 -1 -20 -2 -20 -14 -3 -7 9 -16 17
-20 17 -10 0 -7 -44 5 -60 8 -12 9 -9 4 10 l-6 25 20 -25 21 -25 0 30 1 30 14
-25 15 -25 -6 30 c-9 39 -18 57 -27 49z"/>
<path d="M3175 260 c-4 -6 1 -7 10 -3 15 5 15 3 4 -15 -15 -24 -9 -35 15 -26
19 7 21 25 4 42 -15 15 -25 15 -33 2z m35 -24 c0 -3 -4 -8 -10 -11 -5 -3 -10
-1 -10 4 0 6 5 11 10 11 6 0 10 -2 10 -4z"/>
<path d="M2871 242 c-7 -13 -6 -23 1 -30 17 -17 23 -15 36 13 13 29 6 33 -15
8 -13 -17 -14 -16 -8 5 8 27 -1 29 -14 4z"/>
<path d="M4360 250 c0 -6 5 -8 10 -5 13 8 13 -5 0 -25 -7 -11 -10 -11 -10 -2
0 7 -5 10 -11 6 -16 -10 6 -28 26 -20 10 3 15 15 13 28 -3 22 -28 39 -28 18z"/>
<path d="M4536 230 c3 -19 11 -39 16 -45 7 -7 8 -3 3 13 -4 16 -2 22 9 22 8 0
17 -8 19 -17 3 -10 5 -4 6 14 0 17 -3 35 -9 38 -5 3 -10 -1 -10 -9 0 -21 -9
-20 -27 2 -12 15 -13 13 -7 -18z"/>
<path d="M4604 245 c-9 -24 22 -53 38 -37 9 9 10 17 2 29 -15 24 -33 27 -40 8z
m30 -11 c9 -22 -3 -32 -14 -14 -12 19 -12 30 -1 30 5 0 12 -7 15 -16z"/>
<path d="M2925 229 c-9 -28 -2 -33 13 -9 6 11 8 21 3 25 -5 3 -13 -4 -16 -16z"/>
<path d="M4448 243 c-7 -16 -3 -56 7 -60 6 -1 10 11 9 27 -1 31 -9 48 -16 33z"/>
<path d="M2960 225 c-7 -8 -10 -22 -6 -30 6 -17 36 -21 36 -4 0 5 -4 7 -10 4
-5 -3 -10 -1 -10 4 0 6 7 11 16 11 9 0 14 5 12 12 -6 18 -24 20 -38 3z"/>
<path d="M4405 219 c-10 -30 0 -33 13 -4 6 14 7 25 2 25 -5 0 -12 -9 -15 -21z"/>
</g>
</svg>
